<?xml version="1.0" encoding="utf-8"?>
<!-- Generator: Adobe Illustrator 23.0.1, SVG Export Plug-In . SVG Version: 6.00 Build 0)  -->
<svg version="1.1" id="Layer_1" xmlns="http://www.w3.org/2000/svg" xmlns:xlink="http://www.w3.org/1999/xlink" x="0px" y="0px"
	 viewBox="0 0 39.3 37.7" style="enable-background:new 0 0 39.3 37.7;" xml:space="preserve">
<style type="text/css">
	.st0{fill:#1BADBF;}
	.st1{fill:#158BBF;}
	.st2{fill:#ECEFF1;}
</style>
<g id="like" transform="translate(0 -10.667)">
	<rect id="Rectangle_6" x="0.8" y="11.5" class="st0" width="11.5" height="19.7"/>
	<path id="Tracé_4" class="st1" d="M12.3,10.7H0.8C0.4,10.7,0,11,0,11.5v19.7C0,31.6,0.4,32,0.8,32c0,0,0,0,0,0h11.5
		c0.5,0,0.8-0.4,0.8-0.8l0,0V11.5C13.1,11,12.7,10.7,12.3,10.7z M1.6,12.3h9.8v18H1.6V12.3z"/>
	<path id="Tracé_5" class="st2" d="M12.3,14.8c1.4-1,3.1-1.6,4.9-1.6h15.1c1.6,0,2.9,1.3,2.9,2.9c0,0.8-0.3,1.6-0.9,2.1
		c1.6,0.2,2.7,1.6,2.5,3.1c-0.1,0.7-0.4,1.3-0.9,1.8c1.6,0.2,2.7,1.6,2.5,3.1c-0.1,1-0.7,1.8-1.5,2.2c1.5,1,2,3,1.1,4.5
		c-0.6,1-1.6,1.5-2.8,1.5H23.7c0.9,2.4,1.5,4.8,1.6,7.4c0,3.1-2.7,5.7-4.1,5.7c-0.9,0-1.7-0.3-2.5-0.8V41l-4.9-10.6l-1.6-0.8V14.8z"
		/>
	<path id="Tracé_6" class="st1" d="M32.3,12.3H17.2c-2,0-3.9,0.7-5.5,1.9c-0.2,0.2-0.2,0.4-0.2,0.6v14.7c0,0.3,0.2,0.6,0.5,0.7
		l1.4,0.7L18,41.1v5.6c0,0.2,0.1,0.5,0.3,0.6c0.9,0.6,1.9,1,3,1c1.9,0,4.9-3,4.9-6.6c-0.1-2.2-0.6-4.4-1.3-6.6h10.3
		c2.3,0,4.1-1.8,4.1-4.1c0-1-0.4-2-1.1-2.7c1.4-1.4,1.4-3.8,0-5.2c-0.3-0.3-0.6-0.5-0.9-0.7c0.3-0.5,0.4-1.1,0.4-1.6
		c0-1.4-0.8-2.7-2-3.3c0.3-0.5,0.4-1.1,0.4-1.6C36,14,34.4,12.3,32.3,12.3z M13.1,15.1c1.2-0.7,2.7-1.2,4.1-1.2h15.1
		c1.1,0,2,0.9,2,2c0,0.6-0.2,1.1-0.6,1.5c-0.3,0.3-0.3,0.8,0,1.2c0.1,0.1,0.3,0.2,0.5,0.3c1.1,0.1,1.9,1.1,1.8,2.2
		c-0.1,0.5-0.3,0.9-0.6,1.3c-0.3,0.3-0.3,0.8,0,1.2c0.1,0.1,0.3,0.2,0.5,0.3c1.1,0.1,1.9,1.1,1.8,2.2c-0.1,0.7-0.5,1.3-1.1,1.6
		c-0.4,0.2-0.6,0.7-0.4,1.1c0.1,0.1,0.2,0.2,0.3,0.3c1.2,0.7,1.5,2.2,0.8,3.4c-0.4,0.7-1.2,1.2-2.1,1.2H23.7c-0.5,0-0.8,0.4-0.8,0.8
		c0,0.1,0,0.2,0.1,0.3c0.9,2.3,1.4,4.7,1.6,7.1c0,2.7-2.4,4.9-3.3,4.9c-0.6,0-1.1-0.2-1.6-0.4V41c0-0.1,0-0.2-0.1-0.3L14.7,30
		c-0.1-0.2-0.2-0.3-0.4-0.4L13.1,29L13.1,15.1z"/>
</g>
</svg>
