<svg xmlns="http://www.w3.org/2000/svg" width="39.309" height="37.671" viewBox="0 0 39.309 37.671">
  <g id="like" transform="translate(0 -10.667)">
    <rect id="Rectangle_6" data-name="Rectangle 6" width="11.465" height="19.655" transform="translate(0.819 27.865)" fill="#1badbf"/>
    <path id="Tracé_4" data-name="Tracé 4" d="M12.284,245.292H.819A.819.819,0,0,1,0,244.474V224.819A.819.819,0,0,1,.819,224H12.284a.819.819,0,0,1,.819.819v19.655A.819.819,0,0,1,12.284,245.292ZM1.638,243.655h9.827V225.638H1.638v18.017Z" transform="translate(0 -196.954)" fill="#158bbf"/>
    <path id="Tracé_5" data-name="Tracé 5" d="M160,54.09a8.487,8.487,0,0,0,4.914,1.638h15.15a2.86,2.86,0,0,0,1.965-4.946,2.848,2.848,0,0,0,1.638-4.914,2.848,2.848,0,0,0,.983-5.374,3.276,3.276,0,0,0-1.72-6.059H171.465a26.142,26.142,0,0,0,1.638-7.37c0-3.071-2.662-5.733-4.095-5.733a4.282,4.282,0,0,0-2.457.819v5.733L161.638,38.53,160,39.349Z" transform="translate(-147.716 -9.846)" fill="#eceff1"/>
    <path id="Tracé_6" data-name="Tracé 6" d="M170.216,46.7h-15.15a9.192,9.192,0,0,1-5.493-1.877.819.819,0,0,1-.239-.58V29.5a.819.819,0,0,1,.452-.732l1.381-.691,4.719-10.22V12.3a.819.819,0,0,1,.306-.64,5.14,5.14,0,0,1,2.969-1c1.9,0,4.914,3,4.914,6.552a23.592,23.592,0,0,1-1.31,6.552h10.319a4.1,4.1,0,0,1,4.095,4.095,4.044,4.044,0,0,1-1.065,2.745,3.662,3.662,0,0,1-.958,5.855,3.627,3.627,0,0,1,.385,1.638,3.671,3.671,0,0,1-2.023,3.276,3.628,3.628,0,0,1,.385,1.638A3.69,3.69,0,0,1,170.216,46.7Zm-19.245-2.832a8.438,8.438,0,0,0,4.095,1.194h15.15a2.049,2.049,0,0,0,2.047-2.047,2.021,2.021,0,0,0-.647-1.482.819.819,0,0,1,.468-1.41,2.029,2.029,0,0,0,1.169-3.5.819.819,0,0,1,.468-1.41,2.029,2.029,0,0,0,.693-3.834.819.819,0,0,1-.054-1.425,2.457,2.457,0,0,0-1.279-4.542H161.617a.819.819,0,0,1-.765-1.11,25.466,25.466,0,0,0,1.584-7.079c0-2.683-2.378-4.914-3.276-4.914a3.45,3.45,0,0,0-1.638.444v5.289a.828.828,0,0,1-.075.344l-4.914,10.646a.819.819,0,0,1-.377.388l-1.186.593Z" transform="translate(-137.868 0)" fill="#158bbf"/>
  </g>
</svg>
